<svg xmlns="http://www.w3.org/2000/svg" xmlns:xlink="http://www.w3.org/1999/xlink" width="700" zoomAndPan="magnify" viewBox="0 0 525 525.000007" height="700" preserveAspectRatio="xMidYMid meet" version="1.0"><defs><clipPath id="4efef5e425"><path d="M 286 0 L 524.5 0 L 524.5 183 L 286 183 Z M 286 0 " clip-rule="nonzero"/></clipPath><clipPath id="0ce440e144"><path d="M 341.410156 341 L 524.5 341 L 524.5 524 L 341.410156 524 Z M 341.410156 341 " clip-rule="nonzero"/></clipPath></defs><g clip-path="url(#4efef5e425)"><path fill="#89dee1" d="M 575.210938 25.375 C 569.429688 -4.929688 552.574219 -31.53125 533.28125 -55.160156 C 516.242188 -75.992188 496.039062 -94.636719 471.636719 -106.480469 C 459.832031 -112.25 446.503906 -117.535156 433.300781 -118.261719 C 420.15625 -118.992188 406.890625 -116.378906 394.839844 -111.09375 C 382.609375 -105.8125 371.472656 -97.550781 363.136719 -87.226562 C 353.644531 -75.566406 348.347656 -61.535156 342.8125 -47.6875 C 330.277344 -16.226562 311.046875 11.953125 298.265625 43.414062 C 286.949219 71.230469 281.410156 102.933594 292.972656 131.722656 C 304.046875 159.175781 329.851562 174.964844 358.207031 180.3125 C 390.640625 186.324219 424.171875 179.765625 454.355469 167.3125 C 469.507812 161.117188 483.992188 153.40625 498.109375 145.085938 C 512.042969 136.824219 526.042969 128.382812 539.0625 118.785156 C 550.871094 110.101562 561.214844 99.835938 567.726562 86.597656 C 573.933594 74.023438 576.914062 59.933594 577.035156 45.90625 C 577.097656 38.917969 576.367188 32.058594 575.210938 25.375 " fill-opacity="1" fill-rule="nonzero"/></g><g clip-path="url(#0ce440e144)"><path fill="#ff8bd2" d="M 471.863281 601.988281 C 399.769531 601.988281 341.410156 543.285156 341.410156 471.535156 C 341.410156 399.441406 400.113281 341.082031 471.863281 341.082031 C 543.957031 341.082031 602.316406 399.785156 602.316406 471.535156 C 602.660156 543.285156 543.957031 601.988281 471.863281 601.988281 Z M 471.863281 373.695312 C 418.308594 373.695312 374.367188 417.636719 374.367188 471.191406 C 374.367188 524.746094 418.308594 569.03125 471.863281 569.03125 C 525.417969 569.03125 569.703125 525.089844 569.703125 471.191406 C 569.703125 417.292969 525.761719 373.695312 471.863281 373.695312 Z M 471.863281 373.695312 " fill-opacity="1" fill-rule="nonzero"/></g></svg>